<svg width="1024" height="1024" viewBox="0 0 1024 1024" fill="none" xmlns="http://www.w3.org/2000/svg">
<g clip-path="url(#clip0_102_15)">
<path d="M367.58 157.623C371.797 157.632 376.013 157.623 380.23 157.617C388.461 157.607 396.693 157.614 404.924 157.626C414.533 157.64 424.142 157.638 433.751 157.636C450.908 157.633 468.065 157.644 485.222 157.664C501.828 157.683 518.433 157.69 535.039 157.684C553.173 157.678 571.308 157.679 589.443 157.69C591.38 157.691 593.318 157.692 595.256 157.693C596.209 157.694 597.162 157.695 598.144 157.695C604.824 157.699 611.504 157.699 618.185 157.697C626.337 157.695 634.488 157.7 642.64 157.715C646.791 157.722 650.941 157.726 655.091 157.721C696.253 157.681 696.253 157.681 713.188 162.188C714.421 162.508 714.421 162.508 715.68 162.835C723.852 165.062 731.445 168.199 739 172C740.179 172.584 741.359 173.168 742.574 173.77C768.428 187.521 786.643 211.808 795.289 239.502C799.519 254.368 801.151 269.238 801.14 284.652C801.143 286.026 801.146 287.4 801.149 288.774C801.157 292.531 801.159 296.287 801.16 300.044C801.162 304.104 801.169 308.163 801.176 312.223C801.19 321.093 801.196 329.964 801.2 338.834C801.203 344.382 801.207 349.93 801.212 355.478C801.224 370.864 801.234 386.249 801.238 401.635C801.238 402.619 801.238 403.603 801.238 404.616C801.238 405.602 801.239 406.588 801.239 407.604C801.239 409.602 801.24 411.6 801.24 413.598C801.24 414.589 801.241 415.58 801.241 416.601C801.245 432.632 801.262 448.663 801.286 464.695C801.309 481.187 801.322 497.678 801.323 514.17C801.324 523.416 801.329 532.662 801.348 541.908C801.363 549.788 801.368 557.666 801.36 565.546C801.356 569.556 801.357 573.567 801.371 577.578C801.511 619.707 795.726 658.269 765.625 689.875C748.562 706.157 727.731 715.613 704.75 720.25C703.966 720.413 703.182 720.577 702.374 720.745C683.7 724.233 664.136 723.156 645.221 723.16C641.23 723.162 637.239 723.17 633.247 723.176C624.551 723.19 615.854 723.196 607.157 723.2C601.71 723.203 596.263 723.207 590.815 723.212C575.683 723.224 560.551 723.234 545.419 723.238C544.454 723.238 543.489 723.238 542.495 723.238C541.044 723.239 541.044 723.239 539.564 723.239C537.605 723.239 535.645 723.24 533.686 723.24C532.714 723.241 531.743 723.241 530.741 723.241C515.012 723.245 499.283 723.262 483.554 723.286C467.34 723.309 451.126 723.322 434.912 723.323C425.834 723.324 416.757 723.33 407.68 723.348C399.948 723.363 392.217 723.368 384.485 723.36C380.554 723.356 376.624 723.357 372.693 723.371C330.583 723.515 289.682 720.581 257.879 689.906C244.958 677.051 235.862 662.212 230 645C229.66 644.03 229.66 644.03 229.313 643.04C221.274 619.524 221.542 593.955 221.622 569.386C221.631 565.577 221.623 561.768 221.617 557.959C221.607 550.541 221.614 543.122 221.626 535.704C221.64 527.029 221.638 518.355 221.636 509.681C221.633 494.186 221.644 478.691 221.664 463.196C221.683 448.225 221.69 433.254 221.684 418.282C221.678 401.899 221.678 385.517 221.69 369.134C221.691 367.381 221.692 365.629 221.693 363.876C221.694 363.015 221.695 362.153 221.695 361.265C221.699 355.244 221.699 349.224 221.697 343.204C221.695 335.852 221.7 328.5 221.714 321.148C221.722 317.41 221.726 313.673 221.721 309.935C221.677 269.237 224.472 231.665 251 199C251.574 198.273 252.147 197.546 252.738 196.797C272.18 173.225 303.109 161.48 332.661 158.276C344.253 157.318 355.957 157.589 367.58 157.623Z" fill="#E71E18"/>
<path d="M380.06 227.743C381.561 227.733 381.561 227.733 383.094 227.723C384.733 227.728 384.733 227.728 386.405 227.733C387.572 227.728 388.738 227.724 389.94 227.719C393.174 227.708 396.408 227.707 399.642 227.709C403.132 227.71 406.622 227.699 410.111 227.689C416.946 227.673 423.782 227.667 430.617 227.666C436.174 227.665 441.73 227.661 447.287 227.655C463.043 227.637 478.8 227.628 494.556 227.629C495.83 227.629 495.83 227.629 497.13 227.629C497.981 227.629 498.831 227.63 499.707 227.63C513.488 227.63 527.269 227.611 541.05 227.583C555.202 227.554 569.355 227.541 583.507 227.542C591.452 227.543 599.396 227.537 607.341 227.516C614.105 227.498 620.87 227.493 627.634 227.507C631.084 227.514 634.534 227.514 637.984 227.496C641.728 227.481 645.471 227.49 649.214 227.506C650.3 227.495 651.386 227.485 652.505 227.474C658.67 227.531 664.123 227.893 669 232C672.756 236.874 673.584 241.965 673.495 248.025C673.499 248.792 673.504 249.559 673.509 250.349C673.52 252.897 673.503 255.444 673.486 257.991C673.488 259.827 673.492 261.663 673.497 263.498C673.507 268.469 673.492 273.44 673.472 278.412C673.454 283.625 673.457 288.838 673.458 294.051C673.456 302.808 673.439 311.565 673.412 320.322C673.38 330.427 673.37 340.532 673.371 350.638C673.373 361.418 673.359 372.198 673.34 382.978C673.336 386.074 673.335 389.169 673.334 392.265C673.332 397.143 673.319 402.021 673.299 406.899C673.294 408.682 673.291 410.466 673.292 412.25C673.3 430.455 671.498 449.336 658 463C647.098 473.365 634.693 475.156 620.248 475.134C619.176 475.136 618.103 475.138 616.999 475.141C613.412 475.147 609.825 475.146 606.237 475.145C603.663 475.148 601.089 475.152 598.515 475.155C592.251 475.164 585.987 475.167 579.723 475.167C574.629 475.168 569.535 475.17 564.44 475.173C549.984 475.182 535.527 475.186 521.07 475.185C520.292 475.185 519.513 475.185 518.711 475.185C517.541 475.185 517.541 475.185 516.348 475.185C503.717 475.185 491.086 475.194 478.455 475.208C465.472 475.223 452.489 475.23 439.506 475.229C432.223 475.229 424.939 475.231 417.656 475.242C410.804 475.252 403.952 475.252 397.1 475.245C394.589 475.243 392.078 475.246 389.567 475.252C386.131 475.26 382.696 475.255 379.26 475.247C378.274 475.252 377.287 475.258 376.271 475.263C360.26 475.184 346.166 470.798 334.313 459.75C327.588 452.652 323.981 444.188 321 435C320.67 434.01 320.34 433.02 320 432C319.016 424.077 318.848 416.134 318.839 408.16C318.834 407.045 318.829 405.93 318.824 404.78C318.809 401.136 318.803 397.492 318.797 393.848C318.794 392.596 318.791 391.345 318.788 390.055C318.775 384.126 318.765 378.197 318.761 372.267C318.757 365.447 318.739 358.627 318.71 351.807C318.686 345.874 318.678 339.941 318.677 334.008C318.673 331.492 318.665 328.976 318.652 326.459C318.635 322.951 318.637 319.443 318.644 315.934C318.634 314.895 318.625 313.857 318.616 312.787C318.652 306.526 319.333 302.961 323.616 298.206C327.364 296.31 331.003 296.632 335.141 296.707C336.023 296.711 336.905 296.716 337.814 296.72C340.626 296.737 343.438 296.774 346.25 296.813C348.159 296.828 350.068 296.841 351.977 296.854C356.651 296.887 361.326 296.938 366 297C365.991 296.234 365.982 295.469 365.973 294.68C365.893 287.456 365.832 280.232 365.793 273.008C365.772 269.294 365.744 265.58 365.698 261.866C365.655 258.281 365.631 254.696 365.621 251.11C365.613 249.743 365.599 248.377 365.577 247.011C365.548 245.094 365.546 243.176 365.546 241.259C365.537 240.169 365.528 239.078 365.519 237.955C366.127 234.22 367.31 232.631 370 230C373.463 228.328 376.231 227.749 380.06 227.743Z" fill="#E61E18"/>
<path d="M380.06 227.743C381.561 227.733 381.561 227.733 383.094 227.723C384.733 227.728 384.733 227.728 386.405 227.733C387.572 227.728 388.738 227.724 389.94 227.719C393.174 227.708 396.408 227.707 399.642 227.709C403.132 227.71 406.622 227.699 410.111 227.689C416.946 227.673 423.782 227.667 430.617 227.666C436.174 227.665 441.73 227.661 447.287 227.655C463.043 227.637 478.8 227.628 494.556 227.629C495.83 227.629 495.83 227.629 497.13 227.629C497.981 227.629 498.831 227.63 499.707 227.63C513.488 227.63 527.269 227.611 541.05 227.583C555.202 227.554 569.355 227.541 583.507 227.542C591.452 227.543 599.396 227.537 607.341 227.516C614.105 227.498 620.87 227.493 627.634 227.507C631.084 227.514 634.534 227.514 637.984 227.496C641.728 227.481 645.471 227.49 649.214 227.506C650.3 227.495 651.386 227.485 652.505 227.474C658.67 227.531 664.123 227.893 669 232C672.756 236.874 673.584 241.965 673.495 248.025C673.499 248.792 673.504 249.559 673.509 250.349C673.52 252.897 673.503 255.444 673.486 257.991C673.488 259.827 673.492 261.663 673.497 263.498C673.507 268.469 673.492 273.44 673.472 278.412C673.454 283.625 673.457 288.838 673.458 294.051C673.456 302.808 673.439 311.565 673.412 320.322C673.38 330.427 673.37 340.532 673.371 350.638C673.373 361.418 673.359 372.198 673.34 382.978C673.336 386.074 673.335 389.169 673.334 392.265C673.332 397.143 673.319 402.021 673.299 406.899C673.294 408.682 673.291 410.466 673.292 412.25C673.3 430.455 671.498 449.336 658 463C647.098 473.365 634.693 475.156 620.248 475.134C619.176 475.136 618.103 475.138 616.999 475.141C613.412 475.147 609.825 475.146 606.237 475.145C603.663 475.148 601.089 475.152 598.515 475.155C592.251 475.164 585.987 475.167 579.723 475.167C574.629 475.168 569.535 475.17 564.44 475.173C549.984 475.182 535.527 475.186 521.07 475.185C520.292 475.185 519.513 475.185 518.711 475.185C517.541 475.185 517.541 475.185 516.348 475.185C503.717 475.185 491.086 475.194 478.455 475.208C465.472 475.223 452.489 475.23 439.506 475.229C432.223 475.229 424.939 475.231 417.656 475.242C410.804 475.252 403.952 475.252 397.1 475.245C394.589 475.243 392.078 475.246 389.567 475.252C386.131 475.26 382.696 475.255 379.26 475.247C378.274 475.252 377.287 475.258 376.271 475.263C360.26 475.184 346.166 470.798 334.313 459.75C327.588 452.652 323.981 444.188 321 435C320.67 434.01 320.34 433.02 320 432C319.016 424.077 318.848 416.134 318.839 408.16C318.834 407.045 318.829 405.93 318.824 404.78C318.809 401.136 318.803 397.492 318.797 393.848C318.794 392.596 318.791 391.345 318.788 390.055C318.775 384.126 318.765 378.197 318.761 372.267C318.757 365.447 318.739 358.627 318.71 351.807C318.686 345.874 318.678 339.941 318.677 334.008C318.673 331.492 318.665 328.976 318.652 326.459C318.635 322.951 318.637 319.443 318.644 315.934C318.634 314.895 318.625 313.857 318.616 312.787C318.652 306.526 319.333 302.961 323.616 298.206C327.364 296.31 331.003 296.632 335.141 296.707C336.023 296.711 336.905 296.716 337.814 296.72C340.626 296.737 343.438 296.774 346.25 296.813C348.159 296.828 350.068 296.841 351.977 296.854C356.651 296.887 361.326 296.938 366 297C365.991 296.234 365.982 295.469 365.973 294.68C365.893 287.456 365.832 280.232 365.793 273.008C365.772 269.294 365.744 265.58 365.698 261.866C365.655 258.281 365.631 254.696 365.621 251.11C365.613 249.743 365.599 248.377 365.577 247.011C365.548 245.094 365.546 243.176 365.546 241.259C365.537 240.169 365.528 239.078 365.519 237.955C366.127 234.22 367.31 232.631 370 230C373.463 228.328 376.231 227.749 380.06 227.743ZM395 258C394.999 258.874 394.997 259.749 394.996 260.65C394.959 281.968 394.899 303.286 394.816 324.604C394.776 334.914 394.744 345.223 394.729 355.533C394.716 364.523 394.689 373.513 394.645 382.503C394.623 387.259 394.607 392.016 394.608 396.772C394.609 401.258 394.591 405.743 394.559 410.229C394.55 411.866 394.549 413.504 394.554 415.142C394.59 427.111 393.295 437.55 387 448C387 448.66 387 449.32 387 450C417.438 450.068 447.877 450.122 478.315 450.153C481.91 450.157 485.505 450.161 489.1 450.165C490.173 450.166 490.173 450.166 491.268 450.167C502.851 450.18 514.434 450.204 526.016 450.231C537.904 450.26 549.792 450.276 561.679 450.282C568.355 450.286 575.031 450.295 581.707 450.317C587.991 450.338 594.275 450.344 600.559 450.339C602.865 450.34 605.171 450.346 607.476 450.358C610.627 450.373 613.776 450.369 616.927 450.361C618.293 450.374 618.293 450.374 619.686 450.387C627.474 450.333 634.299 448.701 640 443C642.779 438.39 643.376 434.968 643.381 429.617C643.386 428.895 643.39 428.174 643.395 427.43C643.407 425.023 643.398 422.617 643.388 420.21C643.392 418.48 643.398 416.75 643.404 415.02C643.418 410.33 643.413 405.641 643.403 400.951C643.395 396.044 643.403 391.136 643.407 386.229C643.413 377.992 643.405 369.754 643.391 361.517C643.375 351.987 643.38 342.458 643.397 332.928C643.41 324.748 643.412 316.568 643.404 308.388C643.4 303.501 643.399 298.615 643.409 293.728C643.418 289.138 643.412 284.547 643.394 279.956C643.39 278.269 643.391 276.582 643.398 274.895C643.406 272.597 643.396 270.3 643.381 268.002C643.38 266.715 643.379 265.427 643.378 264.101C643.272 261.069 643.272 261.069 641.739 259.329C639.587 257.684 638.493 257.627 635.805 257.631C634.516 257.622 634.516 257.622 633.2 257.613C631.784 257.626 631.784 257.626 630.338 257.639C629.335 257.637 628.332 257.634 627.299 257.631C623.922 257.627 620.546 257.643 617.169 257.659C614.755 257.66 612.341 257.66 609.927 257.658C604.721 257.657 599.516 257.666 594.31 257.683C586.783 257.707 579.257 257.715 571.731 257.719C559.52 257.725 547.309 257.745 535.098 257.774C523.236 257.801 511.373 257.822 499.511 257.835C498.414 257.836 498.414 257.836 497.295 257.838C493.628 257.842 489.961 257.845 486.294 257.849C455.862 257.88 425.431 257.933 395 258Z" fill="#FCFAF5"/>
<path d="M518.371 513.031C530.544 519.276 537.244 528.166 541.676 540.949C543.966 555.435 541.777 571.053 533.25 583.125C526.257 591.867 518.005 596.33 508 601C506.664 601.662 505.33 602.326 504 603C511.858 611.02 520.236 615.217 531.563 615.563C546.325 615.006 558.897 607.267 570 598C569.836 597.019 569.673 596.038 569.504 595.027C568.909 590.859 568.888 586.766 568.938 582.563C568.942 581.831 568.947 581.099 568.951 580.346C568.963 578.564 568.981 576.782 569 575C569.559 574.985 570.118 574.971 570.693 574.956C573.275 574.88 575.856 574.784 578.438 574.688C579.316 574.665 580.195 574.642 581.1 574.619C589.154 574.292 597.165 573.007 603 567C606.914 561.602 606.923 555.409 606 549C604.316 545.032 602.031 542.031 599 539C596.819 538.67 596.819 538.67 594.275 538.681C593.294 538.661 592.313 538.641 591.303 538.621C590.241 538.609 589.18 538.598 588.086 538.586C587.001 538.567 585.917 538.547 584.799 538.527C581.324 538.467 577.85 538.421 574.375 538.375C572.024 538.337 569.672 538.298 567.321 538.258C561.547 538.162 555.774 538.077 550 538C549.971 534.021 549.953 530.042 549.938 526.063C549.929 524.926 549.921 523.79 549.912 522.619C549.909 521.54 549.906 520.46 549.903 519.348C549.897 518.347 549.892 517.347 549.887 516.317C550 514 550 514 551 513C553.263 512.901 555.53 512.874 557.795 512.873C558.514 512.872 559.233 512.87 559.974 512.868C562.401 512.864 564.827 512.868 567.254 512.871C568.987 512.869 570.719 512.868 572.452 512.865C577.17 512.861 581.889 512.863 586.608 512.866C591.535 512.868 596.462 512.866 601.389 512.864C609.665 512.863 617.94 512.865 626.216 512.87C635.798 512.875 645.38 512.873 654.963 512.868C663.174 512.863 671.386 512.863 679.597 512.865C684.508 512.867 689.419 512.867 694.331 512.864C698.947 512.861 703.563 512.863 708.179 512.869C709.878 512.87 711.577 512.87 713.276 512.867C715.586 512.865 717.895 512.868 720.205 512.873C722.149 512.874 722.149 512.874 724.131 512.874C727 513 727 513 728 514C728.087 515.781 728.107 517.565 728.098 519.348C728.095 520.427 728.091 521.507 728.088 522.619C728.08 523.756 728.071 524.892 728.063 526.063C728.058 527.203 728.054 528.343 728.049 529.518C728.037 532.345 728.019 535.173 728 538C720.41 538 712.82 538 705 538C705 580.24 705 622.48 705 666C694.44 666 683.88 666 673 666C672.67 654.12 672.34 642.24 672 630C668.04 631.98 664.08 633.96 660 636C655.942 637.426 655.942 637.426 652.563 638.313C650.863 638.771 650.863 638.771 649.129 639.238C647.58 639.615 647.58 639.615 646 640C645.215 640.195 644.43 640.389 643.621 640.59C626.311 643.299 609.457 639.862 595 630C590.689 626.673 586.652 623.04 583 619C583 618.34 583 617.68 583 617C581.71 618.052 581.71 618.052 580.395 619.125C559.344 636.107 541.187 642.693 514 641C509.385 640.363 505.228 638.95 501 637C500.202 636.649 499.404 636.299 498.582 635.938C492.152 632.75 487.092 627.987 482 623C481.132 622.186 481.132 622.186 480.246 621.356C471.1 611.922 466 594.011 466 581C466.639 580.93 467.278 580.86 467.937 580.788C490.213 578.8 490.213 578.8 508.688 567.25C513.638 560.293 515.139 553.525 514 545C512.497 540.453 511.018 537.678 507 535C502.069 534.443 500.087 534.268 495.938 537.063C493.7 539.901 493.7 539.901 493.875 543.5C495.767 549.387 499.711 552.129 505 555C503.852 559.368 502.788 563.05 499.875 566.563C494.712 569.144 490.467 568.725 484.996 567.117C476.921 564.065 471.575 560.291 467.125 552.875C463.872 544.563 464.291 537.019 467.559 528.809C477.568 509.306 499.342 504.755 518.371 513.031Z" fill="#FCF9F5"/>
<path d="M303.112 513.873C303.757 513.871 304.403 513.87 305.067 513.868C307.245 513.864 309.423 513.867 311.602 513.871C313.157 513.869 314.712 513.867 316.267 513.865C320.502 513.861 324.738 513.863 328.973 513.866C333.396 513.868 337.818 513.866 342.241 513.864C349.669 513.862 357.097 513.865 364.525 513.87C373.126 513.875 381.727 513.873 390.327 513.868C397.698 513.863 405.069 513.863 412.439 513.865C416.848 513.867 421.256 513.867 425.664 513.864C429.807 513.861 433.95 513.863 438.094 513.869C439.619 513.87 441.144 513.87 442.669 513.867C444.742 513.865 446.815 513.868 448.888 513.873C450.051 513.873 451.214 513.874 452.412 513.874C455 514 455 514 456 515C456.099 516.623 456.131 518.249 456.133 519.875C456.134 520.86 456.135 521.845 456.137 522.859C456.133 523.896 456.129 524.932 456.125 526C456.129 527.036 456.133 528.073 456.137 529.141C456.135 530.618 456.135 530.618 456.133 532.125C456.132 533.035 456.131 533.945 456.129 534.883C456 537 456 537 455 538C449.06 538 443.12 538 437 538C437 580.24 437 622.48 437 666C426.11 666 415.22 666 404 666C404 639.27 404 612.54 404 585C376.787 582.576 376.787 582.576 352.746 593.352C352.314 594.102 351.882 594.852 351.438 595.625C350.982 596.38 350.527 597.136 350.059 597.914C346.536 604.854 346.896 613.932 348.906 621.34C350.112 624.343 351.455 627.157 353 630C353.411 630.766 353.822 631.531 354.246 632.32C358.612 639.549 364.941 645.206 371 651C367.392 656.071 363.532 660.879 359.438 665.562C358.979 666.111 358.52 666.66 358.048 667.226C356.684 668.754 356.684 668.754 354 671C347.56 671.241 342.505 664.978 338 661C337.282 660.379 336.564 659.757 335.824 659.117C322.493 646.775 315.495 629.887 314.797 611.887C314.517 596.84 317.569 581.954 328.246 570.523C338.318 561.775 348.923 559.533 361.91 559.707C363.118 559.711 364.326 559.716 365.571 559.72C369.402 559.737 373.232 559.774 377.062 559.813C379.671 559.828 382.28 559.841 384.889 559.854C391.259 559.886 397.63 559.938 404 560C404 552.74 404 545.48 404 538C399.146 538.008 399.146 538.008 394.194 538.016C383.529 538.032 372.864 538.043 362.199 538.052C355.729 538.057 349.26 538.064 342.791 538.075C336.553 538.086 330.316 538.092 324.078 538.095C321.693 538.097 319.307 538.1 316.922 538.106C313.593 538.113 310.264 538.114 306.936 538.114C305.44 538.119 305.44 538.119 303.915 538.124C302.562 538.122 302.562 538.122 301.182 538.12C300.394 538.121 299.606 538.122 298.794 538.123C297 538 297 538 296 537C295.901 535.377 295.869 533.751 295.867 532.125C295.866 531.14 295.865 530.155 295.863 529.141C295.867 528.104 295.871 527.068 295.875 526C295.869 524.445 295.869 524.445 295.863 522.859C295.865 521.875 295.866 520.89 295.867 519.875C295.868 518.965 295.869 518.055 295.871 517.117C296.142 512.681 299.365 513.874 303.112 513.873Z" fill="#FDFBF6"/>
<path d="M506 775C608.3 775 710.6 775 816 775C816 778.63 816 782.26 816 786C813.36 786 810.72 786 808 786C808.33 786.866 808.66 787.733 809 788.625C810.931 795.418 811.361 803.71 808.652 810.258C806.54 813.764 804.395 815.715 801 818C798.677 818.399 796.343 818.742 794 819C795.539 821.023 797.081 823.044 798.625 825.062C799.079 825.657 799.533 826.251 800.001 826.863C802.457 830.055 804.954 833.17 807.625 836.188C810 839 810 839 810 841C808.425 841.869 806.839 842.72 805.25 843.562C803.927 844.276 803.927 844.276 802.578 845.004C799.669 846.128 798.845 846.096 796 845C794.646 843.551 794.646 843.551 793.435 841.674C792.744 840.623 792.744 840.623 792.04 839.55C791.316 838.41 791.316 838.41 790.578 837.246C790.073 836.471 789.568 835.695 789.048 834.896C787.438 832.417 785.844 829.928 784.25 827.438C783.161 825.755 782.071 824.074 780.98 822.393C778.308 818.27 775.65 814.137 773 810C774.98 807.69 776.96 805.38 779 803C783 805 783 805 785.438 806.688C787.93 808.242 787.93 808.242 790.75 807.812C793.172 807.23 793.172 807.23 794 805C794.098 802.731 794.13 800.459 794.125 798.188C794.129 796.353 794.129 796.353 794.133 794.48C794.081 790.72 794.081 790.72 793 786C784.09 786 775.18 786 766 786C766 805.8 766 825.6 766 846C761.71 846 757.42 846 753 846C753 826.2 753 806.4 753 786C747.72 786 742.44 786 737 786C737 805.8 737 825.6 737 846C732.38 846 727.76 846 723 846C722.67 841.38 722.34 836.76 722 832C719.03 832.99 719.03 832.99 716 834C712.344 834.301 712.344 834.301 708.5 834.312C707.232 834.329 705.963 834.346 704.656 834.363C699.115 833.813 695.233 831.853 691.688 827.562C691.196 826.986 690.705 826.41 690.199 825.816C688.003 822.489 687.862 819.286 687.875 815.375C687.872 814.599 687.87 813.823 687.867 813.023C688 811 688 811 689 809C685.37 808.67 681.74 808.34 678 808C678 804.04 678 800.08 678 796C690.54 796 703.08 796 716 796C716 799.63 716 803.26 716 807C713.754 807.163 711.508 807.326 709.262 807.488C706.57 808.097 705.644 808.809 704 811C703.087 814.471 703.087 814.471 703 818C704.722 821.248 704.722 821.248 708 822C714.019 822.463 716.007 821.568 722 819C722.33 808.11 722.66 797.22 723 786C705.18 786 687.36 786 669 786C669 805.8 669 825.6 669 846C664.38 846 659.76 846 655 846C655 826.2 655 806.4 655 786C649.72 786 644.44 786 639 786C639 805.8 639 825.6 639 846C634.71 846 630.42 846 626 846C626 837.42 626 828.84 626 820C619.73 820 613.46 820 607 820C606.67 822.31 606.34 824.62 606 827C603.693 829.307 602.099 829.954 598.844 830.09C593.786 829.761 590.582 828.799 587 825C584.679 821.905 584.578 818.666 584.684 814.902C585 813 585 813 586.688 810.562C589 809 589 809 594 808C594 800.74 594 793.48 594 786C587.73 786 581.46 786 575 786C575 805.8 575 825.6 575 846C570.71 846 566.42 846 562 846C562 837.42 562 828.84 562 820C560.02 820.495 560.02 820.495 558 821C546.718 821.971 546.718 821.971 542.438 818.812C538.342 816.653 537.384 817.057 533.062 818.25C531.366 818.807 529.675 819.382 528 820C528.82 820.953 529.64 821.905 530.484 822.887C531.573 824.154 532.662 825.421 533.75 826.688C534.289 827.313 534.828 827.939 535.383 828.584C544 838.62 544 838.62 544 841C542.425 841.869 540.839 842.72 539.25 843.562C538.368 844.038 537.487 844.514 536.578 845.004C533.675 846.126 532.843 846.072 530 845C528.199 842.711 526.638 840.492 525.086 838.043C524.63 837.344 524.175 836.644 523.705 835.924C522.251 833.685 520.813 831.437 519.375 829.188C518.399 827.684 517.423 826.18 516.445 824.678C508.753 812.805 508.753 812.805 507 809C508.98 807.02 510.96 805.04 513 803C515.671 803.965 517.783 804.824 520 806.625C522.488 808.335 524.044 808.246 527 808C529.175 804.484 529.239 801.65 529.188 797.562C529.181 796.45 529.175 795.338 529.168 794.191C529.06 790.674 529.06 790.674 528 786C520.74 786 513.48 786 506 786C506 782.37 506 778.74 506 775Z" fill="#0F1314"/>
<path d="M257 747C264.843 753.575 268.614 762.581 272 772C272 772.99 272 773.98 272 775C323.81 774.67 375.62 774.34 429 774C427.35 772.68 425.7 771.36 424 770C421.319 765.881 421.372 761.762 422 757C423.738 751.468 427.206 748.781 432.098 745.945C437.453 743.284 442.738 743.244 448.496 744.578C456.522 747.333 462.346 752.484 466.637 759.785C469.049 764.811 470.629 769.435 471 775C474.3 775 477.6 775 481 775C481 778.63 481 782.26 481 786C478.69 786 476.38 786 474 786C474 805.8 474 825.6 474 846C469.38 846 464.76 846 460 846C460 826.2 460 806.4 460 786C455.05 786 450.1 786 445 786C445 805.8 445 825.6 445 846C440.38 846 435.76 846 431 846C431 833.46 431 820.92 431 808C423.524 810.025 423.524 810.025 421.539 812.828C420.88 815.482 420.57 818.022 420.375 820.75C420.189 823.349 420.189 823.349 420 826C415.71 826 411.42 826 407 826C406.805 822.745 406.609 819.49 406.414 816.234C406.033 813.26 405.728 811.425 404 809C400.638 807.746 400.638 807.746 397 808C393.736 810.663 393.066 812.732 392.062 816.813C391.681 821.396 393.096 824.901 395 829C395.433 830.176 395.433 830.176 395.875 831.375C397.515 833.744 399.288 834.057 402 835C404.69 836.288 407.345 837.643 410 839C407.422 841.648 405.084 843.944 402 846C394.585 845.331 387.963 840.411 383.062 835.063C378.009 828.734 376.358 823.127 376.59 815.07C377.36 809.302 379.532 804.344 383.785 800.305C390.226 795.519 396.25 795.405 404 796C407.474 797.341 409.914 798.943 413 801C413.928 800.361 414.856 799.721 415.812 799.063C419.685 796.557 422.179 795.872 426.688 795.938C428.822 795.968 428.822 795.968 431 796C431 792.7 431 789.4 431 786C409.88 786 388.76 786 367 786C367 805.8 367 825.6 367 846C362.38 846 357.76 846 353 846C353 826.2 353 806.4 353 786C347.39 786 341.78 786 336 786C336 805.8 336 825.6 336 846C331.38 846 326.76 846 322 846C322 838.74 322 831.48 322 824C320.35 824.66 318.7 825.32 317 826C309.372 827.218 303.306 825.327 297 821C292.116 816.661 289.253 812.144 288.845 805.456C288.803 802.51 288.826 799.571 288.875 796.625C288.884 795.603 288.893 794.581 288.902 793.527C288.926 791.018 288.962 788.509 289 786C284.38 786 279.76 786 275 786C275 805.8 275 825.6 275 846C270.71 846 266.42 846 262 846C262 835.44 262 824.88 262 814C255.73 814 249.46 814 243 814C243.33 815.98 243.66 817.96 244 820C242.062 822.875 242.062 822.875 239 825C234.158 825.692 232.067 825.523 227.688 823.375C224.194 820.288 222.413 817.638 221.684 812.977C221.478 809.403 221.674 807.423 223.875 804.563C227.784 801.688 230.933 801.869 235.633 801.902C236.761 801.904 236.761 801.904 237.911 801.907C240.316 801.912 242.72 801.925 245.125 801.938C246.754 801.943 248.383 801.947 250.012 801.951C254.008 801.961 258.004 801.981 262 802C262 796.72 262 791.44 262 786C246.49 786 230.98 786 215 786C215 782.37 215 778.74 215 775C237.77 774.505 237.77 774.505 261 774C256.926 764.759 256.926 764.759 250 759C245.976 758.699 242.026 758.769 238 759C237.162 757.044 236.33 755.085 235.5 753.125C235.036 752.034 234.572 750.944 234.094 749.82C233 747 233 747 233 745C241.04 743.262 249.822 742.531 257 747Z" fill="#101315"/>
<path d="M424 292C483.73 292 543.46 292 605 292C605 299.26 605 306.52 605 314C603.347 315.653 601.368 315.122 599.16 315.129C598.462 315.126 597.765 315.123 597.046 315.12C596.31 315.121 595.574 315.122 594.816 315.123C592.332 315.124 589.847 315.119 587.363 315.114C585.59 315.113 583.816 315.113 582.042 315.114C577.212 315.114 572.382 315.108 567.551 315.101C562.509 315.095 557.467 315.095 552.425 315.093C542.869 315.09 533.314 315.082 523.759 315.072C512.884 315.061 502.009 315.055 491.133 315.05C468.756 315.04 446.378 315.022 424 315C424 307.41 424 299.82 424 292Z" fill="#FDFBF7"/>
<path d="M430.405 341.733C431.544 341.739 431.544 341.739 432.706 341.746C433.913 341.741 433.913 341.741 435.145 341.737C437.856 341.729 440.568 341.735 443.279 341.741C445.217 341.739 447.155 341.735 449.093 341.731C454.368 341.722 459.642 341.725 464.917 341.731C470.427 341.736 475.937 341.732 481.446 341.729C490.7 341.725 499.955 341.73 509.209 341.739C519.921 341.75 530.633 341.747 541.345 341.736C550.528 341.727 559.711 341.725 568.894 341.731C574.385 341.734 579.875 341.734 585.366 341.727C590.527 341.722 595.688 341.726 600.849 341.737C602.748 341.74 604.647 341.739 606.546 341.735C609.129 341.729 611.711 341.736 614.294 341.746C615.433 341.739 615.433 341.739 616.595 341.733C621.772 341.772 621.772 341.772 624 344C624.172 346.706 624.233 349.297 624.188 352C624.187 353.106 624.187 353.106 624.186 354.234C624.141 359.719 624.141 359.719 623 362C597.071 362.023 571.142 362.041 545.213 362.052C533.174 362.057 521.136 362.064 509.098 362.076C498.609 362.085 488.12 362.092 477.632 362.094C472.075 362.095 466.517 362.099 460.96 362.106C455.736 362.113 450.511 362.115 445.287 362.113C443.364 362.113 441.44 362.115 439.517 362.119C436.903 362.124 434.289 362.123 431.675 362.12C430.904 362.123 430.132 362.126 429.338 362.129C424.114 362.114 424.114 362.114 423 361C422.874 358.176 422.815 355.387 422.813 352.563C422.8 351.773 422.788 350.983 422.776 350.17C422.77 348.112 422.878 346.054 423 344C425.501 341.499 426.993 341.758 430.405 341.733Z" fill="#FCF7F3"/>
<path d="M628 538C642.85 538 657.7 538 673 538C673.105 545.453 673.205 552.903 673.259 560.355C673.285 563.826 673.32 567.297 673.377 570.767C673.442 574.754 673.466 578.74 673.488 582.727C673.514 583.964 673.54 585.202 673.566 586.477C673.57 596.079 673.57 596.079 670.622 599.706C659.037 609.842 646.205 614.023 630.961 613.383C622.445 612.56 615.127 609.005 609 603C607.103 600.442 605.486 597.815 604 595C606.883 593.078 609.401 592.033 612.625 590.812C623.067 586.499 631.255 579.667 635.875 569.188C638.52 561.157 637.608 552.566 634 545C632.151 542.367 630.266 540.266 628 538Z" fill="#E51D17"/>
<path d="M431.509 380.729C432.424 380.733 433.34 380.737 434.283 380.741C435.727 380.736 435.727 380.736 437.2 380.731C440.394 380.722 443.587 380.728 446.781 380.734C448.993 380.733 451.205 380.731 453.417 380.729C458.057 380.726 462.698 380.73 467.338 380.739C473.297 380.751 479.256 380.744 485.215 380.732C489.784 380.725 494.353 380.727 498.922 380.732C501.12 380.734 503.317 380.732 505.515 380.727C508.582 380.722 511.649 380.73 514.717 380.741C515.632 380.737 516.547 380.733 517.49 380.729C523.771 380.771 523.771 380.771 526 383C526.198 385.545 526.278 387.957 526.25 390.5C526.261 391.534 526.261 391.534 526.273 392.59C526.253 397.747 526.253 397.747 524 400C520.876 400.194 517.841 400.262 514.717 400.243C513.273 400.246 513.273 400.246 511.799 400.249C508.606 400.252 505.412 400.242 502.219 400.23C500.007 400.229 497.795 400.229 495.583 400.229C490.942 400.227 486.302 400.219 481.661 400.206C475.702 400.189 469.743 400.185 463.784 400.186C459.215 400.185 454.647 400.18 450.078 400.173C447.88 400.17 445.682 400.168 443.484 400.167C440.417 400.165 437.35 400.156 434.283 400.145C433.368 400.146 432.452 400.146 431.509 400.147C425.229 400.114 425.229 400.114 423 399C422.946 396.375 422.906 393.751 422.875 391.125C422.858 390.379 422.841 389.632 422.824 388.863C422.806 386.908 422.897 384.953 423 383C425.707 380.293 427.832 380.754 431.509 380.729Z" fill="#FCF7F3"/>
<path d="M348 325C353.94 325 359.88 325 366 325C366.093 338.065 366.164 351.13 366.207 364.195C366.228 370.262 366.256 376.329 366.302 382.396C366.345 388.25 366.369 394.105 366.379 399.96C366.387 402.194 366.401 404.427 366.423 406.661C366.452 409.79 366.456 412.918 366.454 416.047C366.476 417.432 366.476 417.432 366.498 418.844C366.461 424.524 365.737 427.65 362 432C359.111 433.444 357.203 433.377 354 433C351.427 430.827 349.51 429.02 348 426C347.908 424.644 347.878 423.284 347.88 421.925C347.878 421.073 347.877 420.22 347.875 419.342C347.879 418.404 347.883 417.467 347.886 416.501C347.886 415.516 347.886 414.531 347.886 413.515C347.887 410.247 347.894 406.979 347.902 403.711C347.904 401.449 347.906 399.188 347.907 396.926C347.91 390.965 347.92 385.004 347.931 379.043C347.941 372.964 347.946 366.884 347.951 360.805C347.962 348.87 347.979 336.935 348 325Z" fill="#E41C16"/>
<path d="M425.821 418.628C426.933 418.63 426.933 418.63 428.068 418.632C428.919 418.627 429.77 418.621 430.647 418.616C432.051 418.629 432.051 418.629 433.483 418.644C434.466 418.641 435.45 418.639 436.464 418.637C439.727 418.634 442.99 418.653 446.254 418.672C448.513 418.675 450.772 418.677 453.031 418.678C457.77 418.682 462.509 418.697 467.248 418.719C473.337 418.747 479.426 418.758 485.515 418.762C490.181 418.767 494.847 418.776 499.513 418.788C501.759 418.794 504.005 418.799 506.251 418.803C509.383 418.809 512.515 418.823 515.647 418.839C517.053 418.841 517.053 418.841 518.488 418.842C524.885 418.885 524.885 418.885 526 420C526.127 422.492 526.185 424.945 526.188 427.437C526.2 428.132 526.212 428.826 526.225 429.541C526.23 431.362 526.122 433.183 526 435C523.633 437.367 523.186 437.252 519.977 437.261C519.135 437.268 518.294 437.275 517.427 437.282C516.503 437.28 515.578 437.277 514.625 437.275C513.653 437.28 512.68 437.285 511.678 437.29C508.452 437.304 505.226 437.303 502 437.301C499.766 437.305 497.531 437.309 495.297 437.314C490.609 437.321 485.922 437.321 481.234 437.316C475.215 437.31 469.195 437.327 463.176 437.35C458.561 437.365 453.945 437.366 449.33 437.362C447.11 437.363 444.89 437.368 442.67 437.378C439.571 437.391 436.474 437.384 433.375 437.372C432.45 437.38 431.526 437.388 430.573 437.395C429.731 437.388 428.89 437.381 428.023 437.374C426.924 437.374 426.924 437.374 425.802 437.375C424 437 424 437 422 434C421.734 431.187 421.734 431.187 421.75 428C421.745 426.948 421.74 425.896 421.734 424.812C422.028 421.708 422.424 419.322 425.821 418.628Z" fill="#FDFBF8"/>
<path d="M554.929 380.753C556.81 380.755 556.81 380.755 558.729 380.757C559.42 380.755 560.111 380.753 560.823 380.751C563.113 380.748 565.402 380.758 567.691 380.77C569.278 380.771 570.865 380.771 572.451 380.771C575.778 380.773 579.104 380.781 582.43 380.794C586.704 380.811 590.977 380.815 595.25 380.814C598.526 380.815 601.802 380.82 605.078 380.827C606.654 380.83 608.23 380.832 609.806 380.833C612.005 380.835 614.203 380.844 616.401 380.855C618.28 380.86 618.28 380.86 620.198 380.866C623 381 623 381 624 382C624.127 384.658 624.185 387.279 624.188 389.938C624.2 390.679 624.212 391.421 624.225 392.186C624.23 394.125 624.122 396.064 624 398C621.173 400.827 619.338 400.254 615.379 400.259C614.699 400.262 614.019 400.266 613.319 400.269C611.067 400.278 608.815 400.272 606.562 400.266C605.001 400.267 603.439 400.269 601.877 400.271C598.602 400.274 595.327 400.27 592.052 400.261C587.848 400.249 583.645 400.256 579.441 400.268C576.216 400.275 572.99 400.273 569.765 400.268C568.214 400.266 566.664 400.268 565.114 400.273C562.95 400.278 560.786 400.27 558.621 400.259C556.771 400.256 556.771 400.256 554.885 400.254C552 400 552 400 550 398C549.802 395.455 549.721 393.043 549.75 390.5C549.742 389.81 549.735 389.121 549.727 388.41C549.755 381.19 549.755 381.19 554.929 380.753Z" fill="#FCF6F3"/>
<path d="M557.707 418.871C558.408 418.869 559.109 418.867 559.831 418.865C562.158 418.861 564.485 418.864 566.813 418.867C568.423 418.867 570.034 418.866 571.644 418.864C575.023 418.863 578.403 418.865 581.782 418.87C586.124 418.875 590.465 418.872 594.807 418.866C598.134 418.862 601.46 418.864 604.787 418.866C606.388 418.867 607.99 418.866 609.591 418.864C611.825 418.861 614.059 418.865 616.293 418.871C618.204 418.872 618.204 418.872 620.153 418.873C623 419 623 419 624 420C624.127 422.492 624.185 424.945 624.188 427.438C624.2 428.132 624.212 428.826 624.225 429.541C624.23 431.362 624.122 433.183 624 435C621.174 437.827 619.339 437.254 615.379 437.259C614.699 437.262 614.019 437.266 613.319 437.269C611.067 437.278 608.815 437.272 606.563 437.266C605.001 437.267 603.439 437.269 601.877 437.271C598.602 437.274 595.327 437.27 592.052 437.261C587.848 437.249 583.645 437.256 579.441 437.268C576.216 437.275 572.99 437.273 569.765 437.268C568.215 437.266 566.664 437.268 565.114 437.273C562.95 437.278 560.786 437.27 558.621 437.259C556.772 437.256 556.772 437.256 554.885 437.254C552 437 552 437 550 435C549.829 432.437 549.768 429.997 549.813 427.438C549.813 426.74 549.814 426.041 549.815 425.322C549.876 418.332 550.957 418.875 557.707 418.871Z" fill="#FDFCF9"/>
<path d="M303 786C309.27 786 315.54 786 322 786C322.081 790.292 322.14 794.583 322.188 798.875C322.213 800.098 322.238 801.322 322.264 802.582C322.273 803.749 322.283 804.915 322.293 806.117C322.309 807.196 322.324 808.275 322.341 809.386C322.228 810.249 322.116 811.111 322 812C317.57 814.953 313.196 814.787 308 814C305.127 811.401 303.094 808.791 302.886 804.845C302.892 803.976 302.897 803.107 302.902 802.211C302.906 801.27 302.909 800.329 302.912 799.359C302.92 798.375 302.929 797.39 302.938 796.375C302.942 795.382 302.947 794.39 302.951 793.367C302.963 790.911 302.981 788.456 303 786Z" fill="#F5F4EF"/>
<path d="M388 447C507.79 447.495 507.79 447.495 630 448C626.931 450.046 626.335 450.25 622.883 450.246C622.041 450.25 621.199 450.254 620.331 450.258C619.406 450.252 618.481 450.247 617.528 450.241C616.054 450.243 616.054 450.243 614.55 450.246C611.243 450.249 607.936 450.238 604.628 450.227C602.263 450.226 599.898 450.227 597.533 450.228C591.769 450.228 586.004 450.22 580.239 450.207C573.532 450.193 566.825 450.19 560.118 450.187C548.157 450.183 536.196 450.17 524.235 450.151C512.615 450.133 500.994 450.118 489.374 450.11C488.658 450.109 487.942 450.109 487.204 450.108C483.612 450.106 480.02 450.103 476.427 450.101C446.618 450.08 416.809 450.045 387 450C387.33 449.01 387.66 448.02 388 447Z" fill="#C93D37"/>
<path d="M543 786C549.27 786 555.54 786 562 786C562 792.93 562 799.86 562 807C553.737 810.541 553.737 810.541 548 810C546.647 809.375 545.308 808.715 544 808C544.012 806.915 544.023 805.829 544.035 804.711C544.045 803.266 544.054 801.82 544.062 800.375C544.071 799.662 544.079 798.949 544.088 798.215C544.091 797.512 544.094 796.81 544.098 796.086C544.103 795.447 544.108 794.808 544.114 794.15C543.969 791.412 543.451 788.705 543 786Z" fill="#EEECE7"/>
<path d="M608 786C613.94 786 619.88 786 626 786C626 793.26 626 800.52 626 808C620.06 808 614.12 808 608 808C608 800.74 608 793.48 608 786Z" fill="#EFEDE8"/>
<path d="M448.008 755.078C452.199 757.017 454.084 760.977 456 765C457.209 768.293 458.188 771.588 459 775C456.624 775.109 454.253 775.188 451.875 775.25C451.21 775.283 450.545 775.317 449.86 775.352C444.725 775.452 441.938 774.227 438 771C436.072 767.899 435.998 766.111 436.063 762.437C437 759 437 759 439.063 756.5C442.226 754.885 444.481 754.413 448.008 755.078Z" fill="#F6F4EF"/>
<path d="M734 786C734.33 786 734.66 786 735 786C734.997 787.087 734.997 787.087 734.993 788.195C734.973 795.008 734.958 801.822 734.948 808.635C734.943 812.138 734.936 815.641 734.925 819.144C734.912 823.168 734.907 827.191 734.902 831.215C734.897 832.478 734.892 833.742 734.887 835.044C734.887 836.205 734.887 837.366 734.886 838.562C734.883 840.104 734.883 840.104 734.88 841.678C734.738 843.961 734.738 843.961 736 845C736 825.53 736 806.06 736 786C736.33 786 736.66 786 737 786C737 805.8 737 825.6 737 846C732.38 846 727.76 846 723 846C722.67 841.38 722.34 836.76 722 832C718.535 832.495 718.535 832.495 715 833C718.013 830.991 720.527 829.961 724 829C724.66 829.33 725.32 829.66 726 830C726 834.29 726 838.58 726 843C728.64 843 731.28 843 734 843C734 824.19 734 805.38 734 786Z" fill="#333535"/>
<path d="M637 786C637.33 786 637.66 786 638 786C637.997 787.083 637.997 787.083 637.993 788.188C637.973 794.987 637.958 801.785 637.948 808.583C637.943 812.078 637.936 815.574 637.925 819.069C637.912 823.085 637.907 827.101 637.902 831.117C637.897 832.376 637.892 833.634 637.887 834.93C637.887 836.091 637.887 837.252 637.886 838.449C637.883 839.988 637.883 839.988 637.88 841.558C637.836 844.008 637.836 844.008 639 846C634.71 846 630.42 846 626 846C626 837.42 626 828.84 626 820C619.73 820 613.46 820 607 820C607 819.67 607 819.34 607 819C613.93 819 620.86 819 628 819C628 826.92 628 834.84 628 843C630.97 843 633.94 843 637 843C637 824.19 637 805.38 637 786Z" fill="#222525"/>
<path d="M429 806C430.32 806.33 431.64 806.66 433 807C433 819.21 433 831.42 433 844C436.63 844 440.26 844 444 844C444 841.69 444 839.38 444 837C444.33 837 444.66 837 445 837C445 839.97 445 842.94 445 846C440.38 846 435.76 846 431 846C431 833.13 431 820.26 431 807C430.34 806.67 429.68 806.34 429 806Z" fill="#2D2E2D"/>
<path d="M764 786C764.33 786 764.66 786 765 786C765.33 805.8 765.66 825.6 766 846C761.71 846 757.42 846 753 846C753 845.01 753 844.02 753 843C756.63 843 760.26 843 764 843C764 824.19 764 805.38 764 786Z" fill="#1D2021"/>
<path d="M472 786C472.33 786 472.66 786 473 786C473.33 805.8 473.66 825.6 474 846C469.38 846 464.76 846 460 846C460 845.34 460 844.68 460 844C463.96 844 467.92 844 472 844C472 824.86 472 805.72 472 786Z" fill="#0A0B0B"/>
<path d="M678 796C678.66 796 679.32 796 680 796C680 799.3 680 802.6 680 806C683.63 806 687.26 806 691 806C690.67 808.31 690.34 810.62 690 813C689.67 811.68 689.34 810.36 689 809C685.37 808.67 681.74 808.34 678 808C678 804.04 678 800.08 678 796Z" fill="#333332"/>
<path d="M510 640C519.9 640.33 529.8 640.66 540 641C539.01 642.485 539.01 642.485 538 644C536.172 644.281 536.172 644.281 533.965 644.145C533.155 644.099 532.344 644.053 531.51 644.006C530.661 643.942 529.812 643.878 528.938 643.812C528.116 643.768 527.294 643.724 526.447 643.678C520.791 643.317 515.503 642.347 510 641C510 640.67 510 640.34 510 640Z" fill="#D32620"/>
<path d="M670 563C670.33 563 670.66 563 671 563C671.33 574.55 671.66 586.1 672 598C671.01 598 670.02 598 669 598C669.33 586.45 669.66 574.9 670 563Z" fill="#EB2721"/>
<path d="M798 614C798.33 614 798.66 614 799 614C799.374 621.474 798.041 627.821 796 635C795.67 635 795.34 635 795 635C794.627 627.526 795.96 621.179 798 614Z" fill="#D21713"/>
<path d="M456 771C456.66 771 457.32 771 458 771C458.33 772.32 458.66 773.64 459 775C454.05 775 449.1 775 444 775C444 774.34 444 773.68 444 773C447.96 773 451.92 773 456 773C456 772.34 456 771.68 456 771Z" fill="#FCFCFA"/>
<path d="M233 745C235.64 745.33 238.28 745.66 241 746C239.667 748 238.333 750 237 752C236.34 752 235.68 752 235 752C234.34 749.69 233.68 747.38 233 745Z" fill="#1A1C1D"/>
<path d="M506 603C507.65 603 509.3 603 511 603C510.01 603.495 510.01 603.495 509 604C510.293 606.884 511.659 608.872 514 611C510.677 609.832 508.166 608.851 506 606C506 605.01 506 604.02 506 603Z" fill="#D81813"/>
<path d="M425 752C425.33 753.32 425.66 754.64 426 756C425.34 756 424.68 756 424 756C424 758.31 424 760.62 424 763C423.34 762.67 422.68 762.34 422 762C422.75 754.25 422.75 754.25 425 752Z" fill="#0D0E0E"/>
<path d="M441 745C443.331 745.35 445.664 745.686 448 746C448 746.33 448 746.66 448 747C446.23 747.054 444.459 747.093 442.688 747.125C441.208 747.16 441.208 747.16 439.699 747.195C437 747 437 747 434 745C437.322 743.893 437.795 744.11 441 745Z" fill="#252928"/>
<path d="M379 811C379.33 811 379.66 811 380 811C380 814.96 380 818.92 380 823C379.01 823.33 378.02 823.66 377 824C377.66 819.71 378.32 815.42 379 811Z" fill="#181B1D"/>
<path d="M223 805C224.98 805.495 224.98 805.495 227 806C226.67 806.33 226.34 806.66 226 807C225.768 808.515 225.588 810.038 225.438 811.562C225.354 812.389 225.27 813.215 225.184 814.066C225.123 814.704 225.062 815.343 225 816C224.67 816 224.34 816 224 816C223.856 814.886 223.711 813.773 223.562 812.625C223.216 809.179 223.216 809.179 222 807C222.33 806.34 222.66 805.68 223 805Z" fill="#1A1D1E"/>
<path d="M397 796C396.67 796.99 396.34 797.98 396 799C393.03 799 390.06 799 387 799C390.116 795.884 392.788 795.886 397 796Z" fill="#1B1C1C"/>
<path d="M233 651C234.5 652.375 234.5 652.375 236 654C236 654.66 236 655.32 236 656C236.99 656.33 237.98 656.66 239 657C238.34 658.32 237.68 659.64 237 661C236.328 659.711 235.663 658.419 235 657.125C234.629 656.406 234.257 655.686 233.875 654.945C233 653 233 653 233 651Z" fill="#D11912"/>
<path d="M249 202C249.66 202.99 250.32 203.98 251 205C249.35 206.32 247.7 207.64 246 209C245.67 208.34 245.34 207.68 245 207C246.32 205.35 247.64 203.7 249 202Z" fill="#D81410"/>
</g>
<defs>
<clipPath id="clip0_102_15">
<rect width="1024" height="1024" fill="white"/>
</clipPath>
</defs>
</svg>
