<svg width="1366" height="1366" viewBox="0 0 1366 1366" fill="none" xmlns="http://www.w3.org/2000/svg">
<path d="M442.667 212.133C403.467 215.867 371.6 230.133 345.2 255.6C320 279.867 305.333 309.733 299.067 349.6C296.8 363.6 296.667 380 296.667 587.333C296.667 794.667 296.8 811.067 299.067 825.067C304.667 860.4 316.4 887.333 336.667 911.2C359.6 938.133 396.8 956.8 436.8 961.333C446.267 962.4 517.867 962.667 690.667 962.4L931.333 961.867L944.667 958.8C999.867 946.267 1040 910.667 1057.07 859.333C1062.27 843.733 1064.93 829.733 1066.67 810.667C1068.53 788.667 1068.4 379.467 1066.53 358.267C1061.6 303.733 1036 260.133 994.133 234.933C974.933 223.333 947.333 214.533 921.467 212C904.933 210.4 459.867 210.533 442.667 212.133ZM888.8 307.6C897.733 314 897.333 308.133 897.333 446.4C897.333 583.333 897.467 581.2 889.333 598.533C883.867 610 877.2 617.867 867.733 624.133C852.667 633.733 862.267 633.333 665.067 633.333C512 633.333 487.467 633.067 480.133 631.333C454.667 625.333 436.8 607.733 428.4 580.533C426.133 573.2 426 566.4 426 488.267V403.733L430.4 399.867L434.667 396H461.333H488V354.8C488 315.333 488.133 313.6 490.8 310.133C492.267 308.267 495.467 306.133 497.733 305.467C500.267 304.667 578.8 304.267 693.333 304.4L884.667 304.667L888.8 307.6ZM678.267 680C695.333 684 709.333 694.933 716.933 710.267C721.2 718.933 721.867 721.733 722.4 731.733C723.733 759.6 714.667 778.933 694.133 792.267C689.733 795.067 682.667 798.667 678.4 800.267L670.533 803.067L674.933 807.6C677.333 810.133 683.067 814 687.6 816.267C706.8 825.6 727.733 821.733 751.733 804.133L760.267 798L759.333 791.2C758.4 783.333 758.133 768 759.067 767.2C759.333 766.8 766.133 766.4 774.133 766.267C787.467 766 789.2 765.733 796 762C800.933 759.2 804.267 756.267 806.267 752.667C812 742.4 809.333 727.067 800.533 720.133C797.2 717.467 795.467 717.333 765.067 717.333H733.2L733.6 700.933L734 684.667H852H970L970.4 700.933L970.8 717.333H955.333H940V802.667V888H918.667H897.333V863.467V838.8L887.2 844C865.2 855.2 836.4 857.733 815.067 850.267C803.6 846.4 789.2 837.067 781.467 828.667L775.867 822.533L769.6 828C748 847.067 728 855.2 702.667 855.067C677.867 854.933 660.133 848 644.8 832C634.4 821.333 629.467 811.467 624.667 792.667C619.867 774 619.467 775.067 631.733 774C662.8 771.467 679.467 762.4 684.667 745.067C687.2 736.4 687.2 732.933 684.667 724.267C682.133 716 677.6 712 670.533 712C655.467 712 653.733 730 668.267 737.467C671.067 738.933 673.333 740.667 673.333 741.467C673.333 744.4 667.733 753.467 664.667 755.467C657.6 760.133 640.667 755.333 630.933 746.133C623.467 739.2 620.667 732.667 620.8 721.867C620.8 709.6 625.2 700.133 635.467 690.8C646.8 680.4 662.8 676.4 678.267 680ZM607.333 701.333V716.667L595.067 717.067L582.667 717.467V802.667V888H560.667H538.667V833.867V779.867L511.733 780.267C485.067 780.667 484.533 780.667 478.533 784.267C471.6 788.4 464.533 797.867 463.2 804.933C460 821.867 467.467 840.533 484 857.867L494.4 868.667L482.4 882.4L470.4 896L464.267 891.733C454.533 885.2 437.2 866.933 431.6 857.333C424.133 844.533 421.2 833.733 420.4 816.667C419.6 799.733 421.733 788.533 427.867 776.267C434 764.267 440.267 758 451.6 752.4L461.867 747.333L500.267 746.933L538.667 746.533V732V717.333L467.067 717.067L395.333 716.667L394.933 702.8C394.8 695.067 394.933 688 395.2 687.067C395.867 685.6 414.933 685.333 501.6 685.6L607.333 686V701.333Z" fill="#E71E18"/>
<path d="M526.667 458.533C526.667 568.933 526.533 573.333 524 581.467C522.533 586.133 520.133 592 518.667 594.4C517.2 596.8 516 598.8 516 599.067C516 599.2 589.333 599.067 678.933 598.667C837.2 598 842.133 597.867 846.267 595.467C848.667 594 851.867 590.933 853.6 588.8L856.667 584.667L857.067 466.8C857.333 358.267 857.2 348.667 855.2 346.4C853.067 344.133 846.667 344 689.733 344H526.667V458.533ZM806 404V419.333L685.733 419.733L565.333 420V404.8C565.333 393.867 565.867 389.333 567.067 388.933C567.867 388.533 622.133 388.267 687.333 388.4L806 388.667V404ZM830.533 457.867C831.6 459.067 832 463.867 831.733 470.933L831.333 482H698H564.667L564.267 470.933C564 463.867 564.4 459.067 565.467 457.867C566.8 456.267 587.2 456 698 456C808.8 456 829.2 456.267 830.533 457.867ZM699.733 509.6C702 511.867 701.867 529.867 699.467 531.867C698.267 532.933 679.2 533.2 631.2 533.067L564.667 532.667L564.267 522.267C564 515.6 564.4 511.067 565.467 509.867C566.8 508.267 577.867 508 632.533 508C681.733 508 698.533 508.4 699.733 509.6ZM831.733 519.067C832 525.733 831.6 530.267 830.533 531.467C828.4 534 737.467 534.267 734.933 531.733C732.8 529.6 732.8 511.733 734.933 509.6C736.133 508.4 748.267 508 784 508.267L831.333 508.667L831.733 519.067ZM701.067 568C701.333 572.667 701.067 578 700.667 579.6L700 582.667H632.667H565.333L564 579.2C562.267 574.8 562.267 564.533 564 561.2C565.467 558.667 567.333 558.667 633.067 558.933L700.667 559.333L701.067 568ZM831.733 569.467C832 576.933 831.6 580 830.267 581.2C828.8 582.267 815.6 582.667 781.2 582.4L734 582L733.6 572.133C733.333 566.667 733.467 561.467 733.867 560.4C734.533 558.933 743.2 558.667 782.933 558.933L831.333 559.333L831.733 569.467Z" fill="#E71E18"/>
<path d="M464 500.267C464 564.4 464.133 567.467 466.667 571.6C469.6 576.4 476.533 578.533 481.2 576.133C488 572.533 488 571.733 488 500V433.333H476H464V500.267Z" fill="#E71E18"/>
<path d="M840.533 720.133C847.2 725.333 850 732.8 850 745.333C850 755.067 849.466 757.6 846.4 763.333C840.266 774.933 824.933 786.8 811.466 790.667C805.466 792.267 805.466 792.4 807.2 795.867C810.4 801.867 819.066 809.6 826.666 813.067C835.466 817.2 850.933 818.533 861.6 816C872 813.467 884.933 806.8 891.466 800.4L897.333 794.8V756V717.333H867.2H836.933L840.533 720.133Z" fill="#E71E18"/>
<path d="M314.667 993.2C310.933 994.4 310.933 995.067 314.933 1004.8L317.733 1011.73L325.2 1011.07C332 1010.4 333.2 1010.67 337.067 1014C339.467 1016 343.2 1021.2 345.467 1025.47L349.333 1033.33H318H286.667V1040.67V1048L317.467 1048.27L348.267 1048.67L348.4 1059.07L348.667 1069.33H326.933C299.6 1069.33 296 1070.67 296 1081.47C296 1091.73 303.867 1100 313.467 1100C320.4 1100 324.533 1096.27 324.4 1090.13L324.267 1085.33H336.667H348.933L349.067 1106.27L349.2 1127.33L358 1127.73L366.667 1128.13V1088V1048H375.733H384.933L385.733 1064.67C386.667 1082.53 387.867 1086.27 394.267 1092.13C402.4 1099.73 414.533 1102.67 426 1099.6L430 1098.53V1112.93V1127.33L439.067 1127.73L448 1128.13V1088V1048H459.333H470.667V1088V1128H480H489.333V1088V1048H532H574.667V1054.53V1061.07L567.467 1061.6C562.533 1062 558.4 1063.33 554.933 1065.73C549.733 1069.07 549.6 1069.2 547.333 1066.67C543.733 1062.8 536.533 1060.93 527.733 1061.73C512.8 1063.07 504.267 1072.4 502.933 1088.93C502.4 1096 502.8 1098.27 505.867 1104.53C510 1112.93 517.467 1120 527.467 1124.93L534.267 1128.4L540.667 1124L547.067 1119.6L540.267 1116.4C528.4 1110.8 522.267 1102.4 522.133 1091.6C522.133 1082 528.267 1074.8 535.2 1076.53C539.867 1077.73 542.667 1084.13 542.667 1094V1101.33H551.2H559.733L560.267 1092.67C560.933 1082.8 563.2 1079.33 570.267 1077.87L574.667 1077.07L574.933 1102.13L575.333 1127.33L584.4 1127.73L593.333 1128.13V1088V1048H603.333H613.333V1088V1128H622.667H632V1088V1048H636.667H641.333V1040.67V1033.33H634.8C628.533 1033.33 628.267 1033.2 627.467 1028.93C624.8 1014.93 612 998.8 599.6 994C582.8 987.6 562.667 999.067 562.667 1015.07C562.667 1021.73 565.733 1027.47 571.067 1030.67C575.333 1033.33 575.067 1033.33 469.333 1033.33H363.333L358.933 1022.13C353.867 1009.33 349.067 1001.87 342 996.533C338 993.467 335.733 992.8 327.6 992.533C322.267 992.267 316.533 992.533 314.667 993.2ZM597.733 1007.87C601.733 1009.47 605.867 1015.87 609.333 1025.87L611.867 1033.33H602.533C591.067 1033.33 585.867 1030.93 583.2 1024.4C580.667 1018.53 581.867 1012.8 586.267 1009.33C590 1006.4 592.8 1006 597.733 1007.87ZM429.333 1065.33C429.333 1084.27 429.467 1084 420.267 1085.73C414.4 1086.93 409.867 1084.93 406.667 1079.73C404.533 1076.13 404 1072.93 404 1061.6V1048H416.667H429.333V1065.33Z" fill="#E71E18"/>
<path d="M674.667 1040.93V1048.67L688.4 1048.27C705.2 1047.73 705.733 1048.27 706.4 1061.87C707.067 1078.27 702 1082.4 691.067 1074.67L685.067 1070.27L680.533 1074.8L676 1079.33L691.867 1103.07C700.667 1116.13 708.133 1127.2 708.533 1127.73C709.333 1128.4 725.333 1121.47 725.333 1120.27C725.333 1120 720.133 1113.6 713.867 1105.87C702.8 1092.4 702.533 1092 706.267 1092C708.267 1092 711.6 1091.2 713.6 1090.13C716.8 1088.4 717.733 1088.53 723.6 1091.6C729.2 1094.53 731.2 1094.8 739.733 1094.27L749.333 1093.6V1110.8V1128H758H766.667V1088V1048H779.333H792V1062.53V1077.07L788 1078C775.733 1080.67 778.133 1100.67 791.333 1105.07C800.667 1108.27 809.333 1103.87 809.333 1096.13C809.333 1093.47 810.133 1093.33 822 1093.33H834.667V1110.67V1128.13L843.467 1127.73L852.133 1127.33L852 1087.6L851.867 1048H862.667H873.333V1088V1128H882.667H892V1088V1048H928H964L963.733 1070.27L963.333 1092.67L956.267 1095.2C941.067 1100.67 930.667 1091.07 939.067 1079.47C940.267 1077.73 943.067 1076.8 947.733 1076.27L954.667 1075.6V1068.53V1061.33H929.333H903.867L904.267 1068.93L904.667 1076.67L912.4 1076.53C918.933 1076.53 920 1076.8 919.333 1078.53C917.6 1082.8 917.067 1089.33 917.867 1094C918.933 1099.73 925.733 1107.73 931.6 1110.13C937.333 1112.53 951.6 1112.53 958.667 1110C961.733 1108.93 964.4 1108 964.533 1108C964.533 1108 964.533 1112.53 964.267 1118L963.733 1128H973.2H982.667V1088V1048H993.333H1004V1088V1128H1012.67H1021.33V1088V1047.87L1038.93 1048.27L1056.67 1048.67L1058.4 1052.53C1061.07 1058 1060.93 1071.07 1058.13 1075.2C1055.2 1079.73 1052.27 1079.6 1045.33 1074.53L1039.6 1070.4L1035.2 1074.93L1030.67 1079.33L1046.67 1103.33C1055.47 1116.53 1063.2 1127.47 1063.87 1127.73C1064.93 1128.13 1078 1122.13 1079.73 1120.53C1080 1120.4 1075.47 1114.27 1069.47 1106.93C1063.47 1099.73 1058.67 1093.33 1058.67 1092.93C1058.67 1092.4 1060.13 1092 1061.87 1092C1065.73 1092 1072.8 1087.33 1076.53 1082.27C1078.8 1079.2 1079.33 1076.53 1079.33 1067.6C1079.33 1061.6 1078.8 1054.67 1078.27 1052.27L1077.07 1048H1082.53H1088V1040.67V1033.33H881.333H674.667V1040.93ZM749.067 1061.87C749.467 1076.4 749.467 1076.4 740.667 1078.8C736.933 1079.87 734.133 1079.87 730.667 1078.8L726 1077.47V1067.07C726 1061.33 725.467 1054.67 724.933 1052.27L723.733 1047.87L736.267 1048.27L748.667 1048.67L749.067 1061.87ZM833.867 1062.93L834 1077.33H822.4H810.667V1062.67V1047.87L822.267 1048.27L833.733 1048.67L833.867 1062.93Z" fill="#E71E18"/>
</svg>
